<?xml version="1.0" standalone="no"?>
<!DOCTYPE svg PUBLIC "-//W3C//DTD SVG 20010904//EN"
 "http://www.w3.org/TR/2001/REC-SVG-20010904/DTD/svg10.dtd">
<svg version="1.0" xmlns="http://www.w3.org/2000/svg"
 width="270.000000pt" height="270.000000pt" viewBox="0 0 270.000000 270.000000"
 preserveAspectRatio="xMidYMid meet">
<metadata>
Created by potrace 1.14, written by Peter Selinger 2001-2017
</metadata>
<g transform="translate(0.000000,270.000000) scale(0.100000,-0.100000)"
fill="#000000" stroke="none">
<path d="M1195 2693 c-251 -31 -524 -147 -710 -304 -56 -47 -168 -165 -212
-223 -120 -161 -224 -394 -248 -561 -3 -16 -9 -55 -14 -85 -13 -79 -6 -332 13
-425 114 -569 575 -1008 1136 -1083 72 -9 299 -9 375 1 112 14 289 69 399 123
49 25 161 90 181 106 178 139 267 232 360 376 73 113 156 303 172 392 2 14 8
41 13 60 25 95 34 349 17 470 -81 566 -524 1032 -1082 1137 -74 14 -332 24
-400 16z"/>
</g>
</svg>
